 <svg  version="1.0" xmlns="http://www.w3.org/2000/svg"  width="191.000000pt" height="157.000000pt" viewBox="0 0 191.000000 157.000000"  preserveAspectRatio="xMidYMid meet">  <g transform="translate(0.000000,157.000000) scale(0.100000,-0.100000)" fill="#9e69d3" stroke="none"> <path d="M490 1449 c0 -4 6 -11 13 -17 7 -6 116 -285 242 -621 l230 -611 82 0 82 0 10 38 c5 20 24 91 41 157 40 153 68 252 82 288 22 56 -1 37 -53 -43 l-52 -82 -20 53 c-11 30 -85 225 -164 433 -100 263 -141 382 -133 390 5 5 10 12 10 16 0 3 -83 5 -185 5 -102 0 -185 -3 -185 -6z m319 -66 c7 -16 78 -198 157 -406 140 -370 171 -437 200 -437 20 0 18 -15 -17 -142 -18 -62 -31 -120 -31 -130 1 -19 -53 -32 -91 -23 -28 7 -34 20 -88 165 -21 58 -63 170 -94 250 -31 80 -67 174 -80 210 -12 36 -45 124 -72 195 -28 72 -60 158 -73 193 -12 34 -26 65 -31 68 -4 2 -6 11 -3 18 3 8 1 17 -5 21 -6 3 -11 15 -11 26 0 18 8 19 113 19 l114 0 12 -27z"/> <path d="M1300 1453 c0 -1 12 -14 26 -28 14 -14 37 -51 52 -83 23 -49 27 -70 27 -149 0 -97 8 -119 20 -55 9 49 64 166 103 219 17 23 52 54 77 68 25 15 45 28 45 28 0 1 -79 2 -175 2 -96 0 -175 -1 -175 -2z m210 -48 c0 -9 -24 -47 -44 -72 -26 -31 -43 -29 -49 5 -3 15 -8 37 -12 50 -7 21 -5 22 49 22 31 0 56 -2 56 -5z"/> <path d="M320 415 c-16 -48 -73 -105 -105 -105 -14 0 -25 -4 -25 -10 0 -5 11 -10 25 -10 34 0 85 -48 106 -101 l17 -44 7 30 c17 69 64 115 116 115 11 0 17 5 14 10 -3 6 -14 10 -24 10 -29 0 -67 36 -94 90 l-25 50 -12 -35z m36 -89 c19 -20 18 -39 -4 -52 -34 -22 -69 25 -40 54 16 16 26 15 44 -2z"/> </g> </svg> 